<svg width="171" height="32" viewBox="0 0 171 32" fill="none" xmlns="http://www.w3.org/2000/svg">
<path d="M67.5821 6.28394H64V22.4472H73.9164V19.2801H67.5821V6.28394Z" fill="#6CD3FF"/>
<path d="M74.2578 16.9649C74.2578 20.416 76.5731 22.7094 80.0678 22.7094C83.5407 22.7094 85.856 20.416 85.856 16.9649C85.856 13.5138 83.5407 11.1985 80.0678 11.1985C76.5731 11.1985 74.2578 13.5138 74.2578 16.9649ZM77.6433 16.943C77.6433 15.3049 78.6044 14.2128 80.0678 14.2128C81.5094 14.2128 82.4705 15.3049 82.4705 16.943C82.4705 18.6031 81.5094 19.6952 80.0678 19.6952C78.6044 19.6952 77.6433 18.6031 77.6433 16.943Z" fill="#6CD3FF"/>
<path d="M86.3972 16.7901C86.3972 20.0882 88.5378 22.3161 91.5738 22.3161C93.0373 22.3161 94.3041 21.7919 94.9375 20.9401V22.4472C94.9375 23.9543 93.9983 24.959 92.3383 24.959C90.853 24.959 89.8264 24.2601 89.7609 23.0151H86.3535C86.6593 26.0075 88.9746 28.0169 92.1417 28.0169C95.8767 28.0169 98.2357 25.5925 98.2357 21.7482V11.5261H95.1996L95.0249 12.64C94.4133 11.7445 93.1246 11.1548 91.6394 11.1548C88.5814 11.1548 86.3972 13.4482 86.3972 16.7901ZM89.8046 16.7027C89.8046 15.13 90.853 14.0816 92.1854 14.0816C93.7362 14.0816 94.872 15.1082 94.872 16.7027C94.872 18.2972 93.758 19.3893 92.2072 19.3893C90.8749 19.3893 89.8046 18.2972 89.8046 16.7027Z" fill="#6CD3FF"/>
<path d="M99.2168 16.9649C99.2168 20.416 101.532 22.7094 105.027 22.7094C108.5 22.7094 110.815 20.416 110.815 16.9649C110.815 13.5138 108.5 11.1985 105.027 11.1985C101.532 11.1985 99.2168 13.5138 99.2168 16.9649ZM102.602 16.943C102.602 15.3049 103.563 14.2128 105.027 14.2128C106.468 14.2128 107.429 15.3049 107.429 16.943C107.429 18.6031 106.468 19.6952 105.027 19.6952C103.563 19.6952 102.602 18.6031 102.602 16.943Z" fill="#6CD3FF"/>
<path d="M113.715 9.82239C114.763 9.82239 115.615 8.97054 115.615 7.90027C115.615 6.83 114.763 6 113.715 6C112.645 6 111.793 6.83 111.793 7.90027C111.793 8.97054 112.645 9.82239 113.715 9.82239ZM112.011 22.4472H115.397V11.5261H112.011V22.4472Z" fill="#6CD3FF"/>
<path d="M117.367 27.6892H120.687V21.355C121.32 22.185 122.762 22.7529 124.269 22.7529C127.523 22.7529 129.489 20.2629 129.402 16.8118C129.314 13.2952 127.283 11.1765 124.247 11.1765C122.696 11.1765 121.233 11.8536 120.621 12.8584L120.446 11.526H117.367V27.6892ZM120.752 16.9865C120.752 15.3484 121.844 14.2563 123.417 14.2563C125.011 14.2563 126.016 15.3702 126.016 16.9865C126.016 18.6029 125.011 19.7168 123.417 19.7168C121.844 19.7168 120.752 18.6247 120.752 16.9865Z" fill="#6CD3FF"/>
<path d="M129.762 18.996C129.849 21.2021 131.597 22.731 134.349 22.731C136.992 22.731 138.827 21.3331 138.827 19.0834C138.827 17.4671 137.866 16.3968 136.074 15.9599L134.131 15.4794C133.432 15.3047 132.995 15.1299 132.995 14.562C132.995 13.9941 133.453 13.6228 134.131 13.6228C134.895 13.6228 135.397 14.1252 135.376 14.8678H138.412C138.324 12.5962 136.599 11.1765 134.196 11.1765C131.772 11.1765 129.959 12.6181 129.959 14.8023C129.959 16.2657 130.767 17.4671 132.929 18.035L134.851 18.5373C135.419 18.6902 135.659 18.9523 135.659 19.3236C135.659 19.8697 135.157 20.2192 134.305 20.2192C133.322 20.2192 132.798 19.7605 132.798 18.996H129.762Z" fill="#6CD3FF"/>
<path d="M143.974 22.7311C145.307 22.7311 146.639 22.1195 147.316 21.224L147.535 22.4472H150.702V11.5261H147.338V17.2051C147.338 18.8432 146.858 19.7387 145.307 19.7387C144.105 19.7387 143.319 19.1927 143.319 17.1614V11.5261H139.955V18.3845C139.955 20.9838 141.397 22.7311 143.974 22.7311Z" fill="#6CD3FF"/>
<path d="M156.036 22.4472V16.4843C156.036 14.6495 157.019 14.1253 157.98 14.1253C159.05 14.1253 159.749 14.7806 159.749 16.1348V22.4472H163.069V16.4843C163.069 14.6277 164.03 14.1035 164.991 14.1035C166.061 14.1035 166.782 14.7587 166.782 16.1348V22.4472H170.059V15.3048C170.059 12.8148 168.748 11.1548 165.93 11.1548C164.358 11.1548 163.069 11.9192 162.501 13.0987C161.846 11.9192 160.71 11.1548 158.897 11.1548C157.696 11.1548 156.582 11.7008 155.927 12.5745L155.796 11.5261H152.65V22.4472H156.036Z" fill="#6CD3FF"/>
<path d="M0 16C0 7.16344 7.16344 0 16 0H37C45.8366 0 53 7.16344 53 16V32H16C7.16344 32 0 24.8366 0 16Z" fill="url(#paint0_linear_1_136)"/>
<path d="M37 6H16C10.4772 6 6 10.4772 6 16C6 21.5228 10.4772 26 16 26H37C42.5228 26 47 21.5228 47 16C47 10.4772 42.5228 6 37 6Z" fill="#E1F2FF"/>
<path d="M16 21C18.7614 21 21 18.7614 21 16C21 13.2386 18.7614 11 16 11C13.2386 11 11 13.2386 11 16C11 18.7614 13.2386 21 16 21Z" fill="black"/>
<path d="M14 15C14.5523 15 15 14.5523 15 14C15 13.4477 14.5523 13 14 13C13.4477 13 13 13.4477 13 14C13 14.5523 13.4477 15 14 15Z" fill="white"/>
<path d="M38 21C40.7614 21 43 18.7614 43 16C43 13.2386 40.7614 11 38 11C35.2386 11 33 13.2386 33 16C33 18.7614 35.2386 21 38 21Z" fill="black"/>
<path d="M36 15C36.5523 15 37 14.5523 37 14C37 13.4477 36.5523 13 36 13C35.4477 13 35 13.4477 35 14C35 14.5523 35.4477 15 36 15Z" fill="white"/>
<defs>
<linearGradient id="paint0_linear_1_136" x1="11.7573" y1="29.2008" x2="27.7252" y2="-3.75613" gradientUnits="userSpaceOnUse">
<stop stop-color="#6BD4FF"/>
<stop offset="1" stop-color="#8C70FF"/>
</linearGradient>
</defs>
</svg>
