<svg width="103" height="32" viewBox="0 0 103 32" fill="none" xmlns="http://www.w3.org/2000/svg">
<g clip-path="url(#clip0_102_145)">
<path fill-rule="evenodd" clip-rule="evenodd" d="M63.9001 25.0249C57.9146 29.5732 49.239 31.9999 41.7694 31.9999C31.2959 31.9999 21.8671 28.0063 14.7338 21.3641C14.1733 20.8417 14.6755 20.1299 15.348 20.5367C23.0462 25.1543 32.5648 27.9323 42.3971 27.9323C49.0282 27.9323 56.3229 26.5179 63.0303 23.5827C64.0436 23.139 64.8909 24.2668 63.9001 25.0249Z" fill="#FF9900"/>
<path fill-rule="evenodd" clip-rule="evenodd" d="M66.387 22.0898C65.6248 21.0821 61.3296 21.6137 59.4016 21.8494C58.8143 21.9234 58.7246 21.3964 59.2537 21.0174C62.6746 18.5352 68.288 19.2517 68.9426 20.0837C69.5971 20.9203 68.7722 26.7213 65.5575 29.49C65.0643 29.9153 64.5936 29.6888 64.8132 29.1249C65.5351 27.2667 67.1536 23.1021 66.387 22.0898Z" fill="#FF9900"/>
<path fill-rule="evenodd" clip-rule="evenodd" d="M59.5377 3.4944V1.08157C59.5377 0.716416 59.8067 0.471436 60.1295 0.471436H70.6075C70.9438 0.471436 71.2128 0.721038 71.2128 1.08157V3.14773C71.2083 3.4944 70.9259 3.94738 70.4237 4.66383L64.9942 12.6557C67.0118 12.6049 69.1414 12.9146 70.9707 13.9777C71.3832 14.2181 71.4953 14.5694 71.5267 14.916V17.4906C71.5267 17.8419 71.15 18.2533 70.7555 18.0407C67.5318 16.2981 63.2501 16.1086 59.6857 18.0592C59.3225 18.2626 58.9414 17.8558 58.9414 17.5045V15.0593C58.9414 14.6664 58.9459 13.9962 59.327 13.3999L65.6174 4.09992H60.143C59.8067 4.09992 59.5377 3.85494 59.5377 3.4944Z" fill="black"/>
<path fill-rule="evenodd" clip-rule="evenodd" d="M21.3138 18.5492H18.126C17.8212 18.5261 17.5791 18.2904 17.5566 17.99V1.1233C17.5566 0.785874 17.8301 0.517781 18.1709 0.517781H21.1435C21.4528 0.531638 21.6994 0.776627 21.7218 1.0817V3.28652H21.7801C22.5558 1.15565 24.0129 0.161865 25.9767 0.161865C27.9719 0.161865 29.2183 1.15565 30.115 3.28652C30.8862 1.15565 32.6392 0.161865 34.5178 0.161865C35.8539 0.161865 37.3155 0.730404 38.2078 2.00615C39.2165 3.42519 39.0103 5.48672 39.0103 7.29403L39.0058 17.9391C39.0058 18.2765 38.7323 18.5492 38.3916 18.5492H35.2083C34.8899 18.5261 34.6344 18.2627 34.6344 17.9391V8.99964C34.6344 8.28781 34.6972 6.51286 34.5447 5.83801C34.3071 4.70556 33.5942 4.38662 32.6706 4.38662C31.8994 4.38662 31.0924 4.91818 30.7651 5.76868C30.4378 6.61918 30.4692 8.04283 30.4692 8.99964V17.9391C30.4692 18.2765 30.1957 18.5492 29.8549 18.5492H26.6716C26.3488 18.5261 26.0978 18.2627 26.0978 17.9391L26.0933 8.99964C26.0933 7.11838 26.3937 4.34964 24.1295 4.34964C21.8384 4.34964 21.9281 7.04904 21.9281 8.99964V17.9391C21.9281 18.2765 21.6546 18.5492 21.3138 18.5492" fill="black"/>
<path fill-rule="evenodd" clip-rule="evenodd" d="M80.2322 0.161865C84.9624 0.161865 87.5225 4.34964 87.5225 9.6745C87.5225 14.8191 84.6934 18.9005 80.2322 18.9005C75.5873 18.9005 73.0586 14.7128 73.0586 9.49423C73.0586 4.24333 75.6187 0.161865 80.2322 0.161865ZM80.2591 3.60546C77.9098 3.60546 77.7618 6.90576 77.7618 8.96267C77.7618 11.0242 77.7304 15.4246 80.2322 15.4246C82.7027 15.4246 82.8192 11.8747 82.8192 9.71147C82.8192 8.28782 82.761 6.58682 82.344 5.23712C81.9853 4.06306 81.2724 3.60546 80.2591 3.60546Z" fill="black"/>
<path fill-rule="evenodd" clip-rule="evenodd" d="M93.657 18.5492H90.4827C90.1643 18.5261 89.9088 18.2627 89.9088 17.9391L89.9043 1.06783C89.9312 0.758138 90.1957 0.517781 90.5185 0.517781H93.4732C93.7512 0.531638 93.9798 0.725783 94.0426 0.989253V3.56848H94.1009C94.9931 1.26197 96.244 0.161865 98.4454 0.161865C99.8756 0.161865 101.27 0.693427 102.167 2.14944C103.001 3.49914 103.001 5.76868 103.001 7.40034V18.0177C102.965 18.3135 102.7 18.5492 102.386 18.5492H99.1897C98.8982 18.5261 98.6561 18.3043 98.6247 18.0177V8.85635C98.6247 7.01207 98.831 4.31266 96.6296 4.31266C95.8539 4.31266 95.141 4.84885 94.7868 5.66236C94.3385 6.69313 94.2802 7.71928 94.2802 8.85635V17.9391C94.2757 18.2765 93.9978 18.5492 93.657 18.5492" fill="black"/>
<path fill-rule="evenodd" clip-rule="evenodd" d="M51.184 10.4926C51.184 11.7729 51.2154 12.8407 50.5877 13.9777C50.0811 14.9022 49.274 15.4707 48.3818 15.4707C47.1578 15.4707 46.4404 14.5093 46.4404 13.0903C46.4404 10.2892 48.875 9.78073 51.184 9.78073V10.4926ZM54.3987 18.5029C54.188 18.6971 53.8831 18.7109 53.6455 18.5815C52.5873 17.6756 52.3946 17.2549 51.8162 16.3906C50.0676 18.2302 48.8257 18.7803 46.5615 18.7803C43.8759 18.7803 41.791 17.0747 41.791 13.6588C41.791 10.9918 43.1899 9.17521 45.1895 8.28773C46.9202 7.50194 49.3368 7.36328 51.184 7.14603V6.72078C51.184 5.93962 51.2423 5.01516 50.7939 4.34031C50.4084 3.73479 49.6641 3.48519 49.005 3.48519C47.79 3.48519 46.7094 4.12769 46.4449 5.4589C46.3911 5.75473 46.1804 6.04593 45.889 6.0598L42.7998 5.71775C42.5398 5.65766 42.2483 5.44041 42.3246 5.02903C43.033 1.16482 46.4225 0 49.4534 0C51.0047 0 53.0312 0.42525 54.2552 1.63628C55.8065 3.12928 55.6586 5.12148 55.6586 7.28932V12.4108C55.6586 13.95 56.2773 14.6249 56.8601 15.4569C57.0619 15.7527 57.1067 16.1086 56.8467 16.3305C56.1966 16.8898 55.0398 17.9298 54.4032 18.5122L54.3987 18.5029" fill="black"/>
<path fill-rule="evenodd" clip-rule="evenodd" d="M9.39298 10.4928C9.39298 11.7732 9.42437 12.8409 8.79667 13.978C8.29003 14.9024 7.48748 15.471 6.59078 15.471C5.36678 15.471 4.6539 14.5095 4.6539 13.0905C4.6539 10.2894 7.08845 9.78097 9.39298 9.78097V10.4928ZM12.6077 18.5032C12.3969 18.6973 12.0921 18.7112 11.8544 18.5818C10.7963 17.6758 10.608 17.2552 10.0252 16.3908C8.27658 18.2305 7.03913 18.7805 4.77047 18.7805C2.08932 18.7805 0 17.0749 0 13.6591C0 10.992 1.40334 9.17545 3.39851 8.28798C5.12915 7.50219 7.54577 7.36352 9.39298 7.14628V6.72103C9.39298 5.93986 9.45127 5.01541 9.0074 4.34056C8.61733 3.73504 7.87307 3.48544 7.21847 3.48544C6.00344 3.48544 4.91843 4.12793 4.6539 5.45914C4.60009 5.75497 4.38937 6.04617 4.10242 6.06004L1.00879 5.71799C0.748748 5.6579 0.461802 5.44065 0.533539 5.02928C1.24642 1.16506 4.63148 0.000244141 7.66234 0.000244141C9.21364 0.000244141 11.2402 0.425494 12.4642 1.63653C14.0155 3.12952 13.8675 5.12172 13.8675 7.28956V12.411C13.8675 13.9503 14.4863 14.6251 15.0691 15.4571C15.2754 15.7529 15.3202 16.1089 15.0602 16.3307C14.41 16.89 13.2533 17.93 12.6166 18.5124L12.6077 18.5032" fill="black"/>
</g>
<defs>
<clipPath id="clip0_102_145">
<rect width="103" height="32" fill="white"/>
</clipPath>
</defs>
</svg>
