<svg width="123" height="37" viewBox="0 0 123 37" fill="none" xmlns="http://www.w3.org/2000/svg">
<path fill-rule="evenodd" clip-rule="evenodd" d="M77.1997 11.3099L75.1997 7.92989L71.6497 9.61989L69.6497 6.22989L66.0997 7.92989L64.1097 4.52989L60.5597 6.22989L58.5597 2.83989L55.0097 4.53989L53.0197 1.13989L49.4597 2.83989L41.9297 27.3599L51.0797 30.1599C51.4244 29.0547 52.153 28.1093 53.1339 27.4944C54.1148 26.8796 55.2833 26.6359 56.4282 26.8074C57.5731 26.9789 58.6189 27.5542 59.3766 28.4295C60.1343 29.3048 60.554 30.4222 60.5597 31.5799V31.6799C60.5797 32.1199 60.5297 32.5599 60.3997 32.9999L69.6997 35.8499L77.1997 11.3099Z" fill="#D61920"/>
<path fill-rule="evenodd" clip-rule="evenodd" d="M49.781 25.34C49.5497 25.3017 49.3398 25.1818 49.1893 25.002C49.0389 24.8222 48.9579 24.5944 48.961 24.36V12.36C48.9597 12.2283 48.9846 12.0976 49.0344 11.9757C49.0842 11.8538 49.1578 11.743 49.2509 11.6499C49.3441 11.5568 49.4548 11.4832 49.5768 11.4334C49.6987 11.3836 49.8293 11.3586 49.961 11.36H58.631C59.1419 11.3587 59.648 11.458 60.1204 11.6523C60.5929 11.8465 61.0225 12.132 61.3846 12.4923C61.7468 12.8525 62.0344 13.2806 62.2311 13.7521C62.4278 14.2236 62.5297 14.7291 62.531 15.24V24.36C62.5308 24.5073 62.498 24.6527 62.435 24.7858C62.372 24.9189 62.2804 25.0365 62.1667 25.1301C62.0531 25.2237 61.9201 25.2911 61.7773 25.3274C61.6346 25.3637 61.4856 25.368 61.341 25.34C61.1116 25.2996 60.904 25.1788 60.7555 24.9992C60.6071 24.8196 60.5275 24.593 60.531 24.36V15.25C60.531 14.7461 60.3308 14.2628 59.9745 13.9065C59.6182 13.5502 59.1349 13.35 58.631 13.35H56.741V24.35C56.7418 24.484 56.7157 24.6167 56.6641 24.7404C56.6126 24.8641 56.5367 24.9762 56.441 25.07C56.3272 25.1829 56.1876 25.2664 56.0343 25.3135C55.881 25.3605 55.7186 25.3696 55.561 25.34C55.3297 25.3017 55.1198 25.1818 54.9693 25.002C54.8189 24.8222 54.7379 24.5944 54.741 24.36V13.35H50.961V24.35C50.962 24.4971 50.9304 24.6426 50.8687 24.7761C50.8069 24.9096 50.7165 25.0279 50.6038 25.1224C50.4911 25.217 50.3589 25.2855 50.2167 25.3231C50.0745 25.3607 49.9257 25.3665 49.781 25.34ZM64.201 30.57C63.968 30.5315 63.7567 30.4101 63.606 30.2282C63.4554 30.0463 63.3755 29.8161 63.381 29.58C63.3821 29.3176 63.4863 29.0662 63.671 28.88C63.8557 28.6916 64.1073 28.5837 64.371 28.58C65.221 28.58 65.951 28.04 66.191 27.23L67.221 23.8L63.851 12.53C63.8108 12.4039 63.796 12.2712 63.8075 12.1394C63.819 12.0076 63.8565 11.8794 63.9179 11.7622C63.9793 11.645 64.0633 11.5411 64.1652 11.4566C64.267 11.3722 64.3845 11.3087 64.511 11.27C64.7629 11.2002 65.032 11.2297 65.2627 11.3525C65.4935 11.4753 65.6683 11.682 65.751 11.93L68.251 20.33L70.791 11.93C70.911 11.47 71.421 11.16 71.941 11.26L72.011 11.27C72.551 11.44 72.851 12.01 72.691 12.54L69.221 24.1L68.121 27.8C67.8742 28.5962 67.3847 29.2955 66.721 29.8C66.046 30.3063 65.2249 30.58 64.381 30.58C64.3208 30.5823 64.2606 30.5789 64.201 30.57Z" fill="#FEFEFE"/>
<path fill-rule="evenodd" clip-rule="evenodd" d="M3.0801 23.1499H5.0401C5.56258 23.1499 6.06365 22.9423 6.4331 22.5729C6.80255 22.2034 7.0101 21.7023 7.0101 21.1799V15.4099C7.01142 15.1512 6.96176 14.8947 6.86398 14.6552C6.76619 14.4157 6.62218 14.1978 6.44018 14.0139C6.25817 13.8301 6.04174 13.6839 5.80323 13.5836C5.56472 13.4834 5.3088 13.4312 5.0501 13.4299H3.0801V23.1299V23.1499ZM1.8501 25.2099C1.60999 25.1693 1.39231 25.0442 1.23641 24.8571C1.08052 24.67 0.996698 24.4334 1.0001 24.1899V6.26987C0.998332 6.13277 1.02396 5.99669 1.07547 5.86962C1.12699 5.74255 1.20336 5.62704 1.3001 5.52987C1.41715 5.40833 1.56226 5.31741 1.72268 5.2651C1.88309 5.21279 2.05391 5.20069 2.2201 5.22987C2.7201 5.32987 3.0801 5.74987 3.0801 6.25987V11.3599H5.0401C5.57148 11.3586 6.0979 11.4621 6.58921 11.6645C7.08052 11.867 7.52707 12.1643 7.90328 12.5396C8.27949 12.9149 8.57797 13.3607 8.78162 13.8515C8.98527 14.3423 9.0901 14.8685 9.0901 15.3999V21.1699C9.08746 22.2405 8.66097 23.2666 7.90389 24.0237C7.14682 24.7807 6.12076 25.2072 5.0501 25.2099H2.0401C1.97327 25.2138 1.9062 25.2105 1.8401 25.1999L1.8501 25.2099Z" fill="#333545"/>
<path fill-rule="evenodd" clip-rule="evenodd" d="M16.14 13.3499C16.0277 13.3303 15.914 13.3203 15.8 13.3199C15.5406 13.3172 15.2832 13.3664 15.043 13.4644C14.8028 13.5625 14.5845 13.7075 14.4011 13.891C14.2176 14.0744 14.0726 14.2927 13.9745 14.5329C13.8765 14.7731 13.8273 15.0305 13.83 15.2899V21.2999C13.8287 21.559 13.8787 21.8158 13.9773 22.0554C14.0758 22.295 14.2209 22.5127 14.4041 22.6959C14.5873 22.8791 14.805 23.0241 15.0446 23.1227C15.2842 23.2212 15.5409 23.2712 15.8 23.2699C16.3225 23.2699 16.8236 23.0624 17.193 22.6929C17.5625 22.3235 17.77 21.8224 17.77 21.2999V15.2999C17.77 14.3299 17.08 13.5199 16.14 13.3499ZM15.09 25.2999C14.1524 25.135 13.3032 24.6442 12.6921 23.9142C12.0811 23.1842 11.7474 22.2619 11.75 21.3099V15.2999C11.7483 14.768 11.8526 14.2411 12.0569 13.75C12.2613 13.259 12.5615 12.8136 12.94 12.4399C13.3155 12.0645 13.7615 11.767 14.2523 11.5645C14.7431 11.362 15.2691 11.2585 15.8 11.2599C16.8715 11.2599 17.8991 11.6856 18.6567 12.4432C19.4144 13.2009 19.84 14.2284 19.84 15.2999V21.3099C19.84 22.3899 19.42 23.4099 18.65 24.1799C18.2761 24.5546 17.8318 24.8517 17.3427 25.0541C16.8536 25.2566 16.3294 25.3606 15.8 25.3599C15.562 25.3609 15.3245 25.3408 15.09 25.2999ZM26.89 13.3599C26.7778 13.3402 26.664 13.3302 26.55 13.3299C26.2906 13.3272 26.0332 13.3764 25.793 13.4744C25.5528 13.5725 25.3345 13.7175 25.1511 13.901C24.9676 14.0844 24.8226 14.3027 24.7245 14.5429C24.6265 14.7831 24.5773 15.0405 24.58 15.2999V21.3099C24.5787 21.569 24.6287 21.8258 24.7273 22.0654C24.8258 22.305 24.9709 22.5227 25.1541 22.7059C25.3373 22.8891 25.555 23.0341 25.7946 23.1327C26.0342 23.2312 26.2909 23.2812 26.55 23.2799C26.8091 23.2812 27.0659 23.2312 27.3055 23.1327C27.5451 23.0341 27.7628 22.8891 27.946 22.7059C28.1292 22.5227 28.2742 22.305 28.3728 22.0654C28.4713 21.8258 28.5213 21.569 28.52 21.3099V15.2999C28.52 14.3399 27.83 13.5299 26.89 13.3599ZM25.84 25.2999C24.9043 25.1329 24.0574 24.6412 23.4483 23.9114C22.8392 23.1816 22.507 22.2605 22.51 21.3099V15.2999C22.5116 14.7106 22.6418 14.1287 22.8915 13.5948C23.1412 13.061 23.5043 12.5881 23.9557 12.2091C24.407 11.8301 24.9357 11.5542 25.5046 11.4006C26.0736 11.247 26.6693 11.2195 27.25 11.3199C28.1878 11.4825 29.038 11.9708 29.6509 12.699C30.2637 13.4271 30.5999 14.3482 30.6 15.2999V21.3099C30.6012 21.8441 30.4957 22.3732 30.2897 22.866C30.0836 23.3589 29.7811 23.8056 29.4 24.1799C29.0261 24.5546 28.5818 24.8517 28.0927 25.0541C27.6036 25.2566 27.0794 25.3606 26.55 25.3599C26.31 25.3599 26.07 25.3399 25.84 25.2999ZM34.11 25.3399C33.8699 25.2994 33.6522 25.1742 33.4963 24.9872C33.3404 24.8001 33.2566 24.5634 33.26 24.3199V6.26991C33.26 5.98991 33.36 5.71991 33.56 5.52991C33.678 5.41347 33.8223 5.3272 33.9807 5.27846C34.1392 5.22971 34.307 5.21992 34.47 5.24991C34.97 5.32991 35.34 5.75991 35.34 6.26991V16.9499L40.12 11.5899C40.36 11.3299 40.72 11.2099 41.08 11.2699C41.2615 11.3003 41.4316 11.3787 41.5725 11.4971C41.7134 11.6155 41.8201 11.7694 41.8813 11.943C41.9426 12.1165 41.9562 12.3033 41.9208 12.4839C41.8854 12.6645 41.8023 12.8323 41.68 12.9699L38.07 16.9999L41.8 23.8299C41.8672 23.9451 41.9106 24.0726 41.9278 24.2048C41.945 24.337 41.9355 24.4714 41.9 24.5999C41.8614 24.7324 41.7962 24.8556 41.7086 24.9622C41.6209 25.0688 41.5125 25.1564 41.39 25.2199C41.1783 25.3416 40.9302 25.3842 40.69 25.3399C40.5406 25.3147 40.3986 25.2568 40.2742 25.1703C40.1497 25.0839 40.0459 24.9711 39.97 24.8399L36.61 18.6599L35.33 20.0699V24.3199C35.33 24.5957 35.2204 24.8603 35.0254 25.0553C34.8304 25.2503 34.5658 25.3599 34.29 25.3599C34.22 25.3599 34.16 25.3599 34.09 25.3399H34.11ZM79.92 25.3299C79.3577 25.2357 78.8234 25.0172 78.3563 24.6902C77.8892 24.3632 77.501 23.9361 77.22 23.4399C77.0826 23.1968 77.0467 22.9093 77.12 22.6399C77.2 22.3799 77.37 22.1599 77.6 22.0199C77.8136 21.9032 78.061 21.8644 78.3 21.9099C78.6 21.9599 78.87 22.1399 79.02 22.4099C79.29 22.8699 79.72 23.1699 80.25 23.2599C80.5233 23.3074 80.8037 23.2925 81.0704 23.2163C81.3371 23.1401 81.5831 23.0046 81.79 22.8199C82.19 22.4499 82.39 21.9199 82.34 21.3999C82.3289 21.1334 82.2552 20.8732 82.1249 20.6404C81.9947 20.4076 81.8114 20.2088 81.59 20.0599L78.79 18.0699C78.3338 17.7496 77.9539 17.3326 77.6774 16.8486C77.4008 16.3646 77.2344 15.8256 77.19 15.2699C77.1538 14.7093 77.2458 14.1478 77.4589 13.628C77.672 13.1082 78.0007 12.6438 78.42 12.2699C78.8291 11.8896 79.3178 11.6052 79.8506 11.4374C80.3834 11.2697 80.9468 11.2227 81.5 11.2999C82.68 11.4999 83.64 12.1799 84.19 13.1399C84.3225 13.3798 84.357 13.6617 84.2861 13.9265C84.2153 14.1912 84.0446 14.4183 83.81 14.5599C83.5983 14.6816 83.3502 14.7242 83.11 14.6799C82.9606 14.6547 82.8186 14.5968 82.6942 14.5103C82.5697 14.4239 82.4659 14.3111 82.39 14.1799C82.2646 13.9678 82.0937 13.786 81.8897 13.6477C81.6857 13.5094 81.4536 13.4179 81.21 13.3799C80.9609 13.3348 80.7046 13.3484 80.4616 13.4196C80.2186 13.4907 79.9955 13.6175 79.81 13.7899C79.6289 13.9608 79.4876 14.1694 79.396 14.401C79.3044 14.6325 79.2648 14.8814 79.28 15.1299C79.3 15.6199 79.58 16.0999 80 16.3799L82.8 18.3299C83.2753 18.6627 83.6684 19.0997 83.9491 19.6074C84.2299 20.1152 84.3909 20.6804 84.42 21.2599C84.4663 21.8367 84.3775 22.4163 84.1605 22.9528C83.9435 23.4892 83.6043 23.9676 83.17 24.3499C82.7476 24.7424 82.243 25.0358 81.6929 25.2088C81.1428 25.3818 80.5611 25.43 79.99 25.3499L79.91 25.3299H79.92ZM87.95 25.3599C87.7098 25.3177 87.4921 25.1924 87.3349 25.006C87.1777 24.8195 87.091 24.5838 87.09 24.3399V6.28991C87.0887 6.15297 87.1147 6.01713 87.1665 5.89035C87.2183 5.76357 87.2948 5.64839 87.3917 5.55155C87.4885 5.45471 87.6037 5.37815 87.7305 5.32636C87.8572 5.27457 87.9931 5.24858 88.13 5.24991L88.33 5.25991C88.83 5.35991 89.17 5.76991 89.17 6.28991V11.3899H91.14C91.6709 11.3886 92.1969 11.4922 92.6876 11.6948C93.1784 11.8973 93.6243 12.1948 93.9997 12.5703C94.3751 12.9457 94.6726 13.3916 94.8752 13.8823C95.0777 14.3731 95.1813 14.899 95.18 15.4299V24.3299C95.1809 24.4809 95.1485 24.6302 95.0853 24.7673C95.022 24.9045 94.9294 25.026 94.8139 25.1233C94.6985 25.2206 94.563 25.2914 94.4172 25.3305C94.2714 25.3697 94.1187 25.3763 93.97 25.3499C93.47 25.2599 93.11 24.8299 93.11 24.3199V15.4199C93.11 15.1617 93.059 14.906 92.9599 14.6675C92.8608 14.4291 92.7155 14.2126 92.5324 14.0304C92.3494 13.8483 92.1321 13.7041 91.8932 13.6062C91.6542 13.5083 91.3983 13.4586 91.14 13.4599H89.17V24.3299C89.1712 24.4819 89.1386 24.6323 89.0748 24.7702C89.0109 24.9082 88.9173 25.0303 88.8007 25.1278C88.6841 25.2253 88.5473 25.2958 88.4003 25.3342C88.2532 25.3726 88.0994 25.378 87.95 25.3499V25.3599ZM102.23 13.3699C101.947 13.3185 101.655 13.3301 101.377 13.404C101.099 13.4779 100.84 13.6123 100.619 13.7975C100.399 13.9827 100.222 14.2143 100.101 14.4757C99.9801 14.7371 99.9183 15.0219 99.92 15.3099V21.3199C99.9187 21.5781 99.9684 21.8341 100.066 22.073C100.164 22.312 100.308 22.5292 100.491 22.7123C100.673 22.8954 100.889 23.0406 101.128 23.1398C101.366 23.2389 101.622 23.2899 101.88 23.2899C102.4 23.2899 102.9 23.0899 103.27 22.7199C103.455 22.5371 103.602 22.319 103.702 22.0786C103.801 21.8381 103.852 21.5802 103.85 21.3199V15.2999C103.85 14.3399 103.17 13.5199 102.22 13.3599L102.23 13.3699ZM101.17 25.2899C100.235 25.125 99.3884 24.6353 98.7792 23.9072C98.17 23.1791 97.8374 22.2593 97.84 21.3099V15.2999C97.8401 14.7097 97.9692 14.1267 98.2183 13.5916C98.4674 13.0565 98.8304 12.5824 99.2819 12.2023C99.7334 11.8222 100.263 11.5454 100.832 11.3913C101.402 11.2371 101.998 11.2094 102.58 11.3099C103.519 11.4728 104.371 11.9626 104.984 12.6928C105.597 13.423 105.932 14.3465 105.93 15.2999V21.3099C105.93 21.8425 105.825 22.3698 105.619 22.861C105.412 23.3521 105.11 23.7971 104.73 24.1699C104.271 24.6305 103.708 24.973 103.088 25.1681C102.468 25.3631 101.81 25.4049 101.17 25.2899Z" fill="#333545"/>
<path fill-rule="evenodd" clip-rule="evenodd" d="M121.901 12.5398C121.935 12.4128 121.943 12.2802 121.926 12.1498C121.909 12.0194 121.866 11.8937 121.801 11.7798C121.725 11.6584 121.626 11.5534 121.509 11.471C121.392 11.3885 121.26 11.3303 121.121 11.2998C120.863 11.251 120.596 11.3026 120.375 11.4438C120.154 11.585 119.995 11.8054 119.931 12.0598C119.931 12.1098 118.811 16.6198 117.931 20.0498L117.911 20.1198L117.891 20.0498L115.891 12.0698C115.852 11.875 115.755 11.6967 115.612 11.559C115.469 11.4213 115.287 11.3308 115.091 11.2998C115.031 11.2881 114.971 11.2814 114.911 11.2798C114.451 11.2798 114.051 11.5998 113.921 12.0598C113.911 12.1098 112.791 16.6198 111.921 20.0498L111.901 20.1198L111.881 20.0498C111.031 16.6198 109.881 12.1098 109.881 12.0598C109.833 11.8684 109.732 11.6947 109.588 11.5599C109.444 11.425 109.265 11.3346 109.071 11.2998C108.904 11.2704 108.733 11.2828 108.572 11.3359C108.412 11.389 108.267 11.4812 108.151 11.6042C108.035 11.7272 107.951 11.8771 107.908 12.0404C107.864 12.2037 107.862 12.3753 107.901 12.5398L110.911 24.5698C110.968 24.7902 111.095 24.9859 111.274 25.1268C111.453 25.2677 111.673 25.3461 111.901 25.3498C112.391 25.3498 112.781 25.0298 112.881 24.5698L114.881 16.5798L114.911 16.5098L114.931 16.5798C115.811 20.0498 116.931 24.5798 116.931 24.5798C116.99 24.796 117.118 24.9874 117.294 25.1259C117.47 25.2645 117.686 25.3429 117.911 25.3498C118.141 25.357 118.367 25.2827 118.548 25.14C118.729 24.9974 118.854 24.7955 118.901 24.5698L121.901 12.5398Z" fill="#333545"/>
</svg>
