<svg width="95" height="32" viewBox="0 0 95 32" fill="none" xmlns="http://www.w3.org/2000/svg">
<path d="M40.427 16.4103C40.427 20.8521 36.9379 24.1251 32.6559 24.1251C28.3739 24.1251 24.8848 20.8521 24.8848 16.4103C24.8848 11.9373 28.3739 8.69556 32.6559 8.69556C36.9379 8.69556 40.427 11.9373 40.427 16.4103ZM37.0252 16.4103C37.0252 13.6347 35.003 11.7356 32.6559 11.7356C30.3088 11.7356 28.2866 13.6347 28.2866 16.4103C28.2866 19.1582 30.3088 21.0851 32.6559 21.0851C35.003 21.0851 37.0252 19.1547 37.0252 16.4103Z" fill="#EA4335"/>
<path d="M57.1927 16.4103C57.1927 20.8521 53.7035 24.1251 49.4215 24.1251C45.1395 24.1251 41.6504 20.8521 41.6504 16.4103C41.6504 11.9408 45.1395 8.69556 49.4215 8.69556C53.7035 8.69556 57.1927 11.9373 57.1927 16.4103ZM53.7908 16.4103C53.7908 13.6347 51.7686 11.7356 49.4215 11.7356C47.0745 11.7356 45.0522 13.6347 45.0522 16.4103C45.0522 19.1582 47.0745 21.0851 49.4215 21.0851C51.7686 21.0851 53.7908 19.1547 53.7908 16.4103Z" fill="#FBBC05"/>
<path d="M73.259 9.16164V23.0121C73.259 28.7095 69.8851 31.0364 65.8964 31.0364C62.1418 31.0364 59.8821 28.5356 59.0299 26.4903L61.9917 25.2625C62.5191 26.5182 63.8113 27.9999 65.893 27.9999C68.4461 27.9999 70.0283 26.4312 70.0283 23.4782V22.3686H69.9095C69.1481 23.3043 67.6812 24.1216 65.8301 24.1216C61.9567 24.1216 58.4082 20.7616 58.4082 16.4382C58.4082 12.0834 61.9567 8.69556 65.8301 8.69556C67.6777 8.69556 69.1446 9.51295 69.9095 10.4208H70.0283V9.16512H73.259V9.16164ZM70.2692 16.4382C70.2692 13.7216 68.4496 11.7356 66.1339 11.7356C63.7869 11.7356 61.8205 13.7216 61.8205 16.4382C61.8205 19.1269 63.7869 21.0851 66.1339 21.0851C68.4496 21.0851 70.2692 19.1269 70.2692 16.4382Z" fill="#4285F4"/>
<path d="M78.5836 1.04346V23.6522H75.2656V1.04346H78.5836Z" fill="#34A853"/>
<path d="M91.515 18.9495L94.1554 20.7026C93.3032 21.9582 91.2495 24.1217 87.701 24.1217C83.3003 24.1217 80.0137 20.7339 80.0137 16.4069C80.0137 11.8191 83.3282 8.69214 87.3203 8.69214C91.3403 8.69214 93.3067 11.8782 93.9493 13.6L94.3021 14.4765L83.9464 18.7478C84.7392 20.2956 85.9721 21.0852 87.701 21.0852C89.4333 21.0852 90.6348 20.2365 91.515 18.9495ZM83.3876 16.1739L90.31 13.3113C89.9293 12.3478 88.7837 11.6765 87.4355 11.6765C85.7067 11.6765 83.3003 13.1965 83.3876 16.1739Z" fill="#EA4335"/>
<path d="M12.3248 14.4036V11.1305H23.4C23.5083 11.701 23.5642 12.3757 23.5642 13.1062C23.5642 15.5618 22.8901 18.5984 20.7176 20.7618C18.6046 22.9531 15.9048 24.1218 12.3283 24.1218C5.69926 24.1218 0.125 18.7444 0.125 12.1427C0.125 5.54097 5.69926 0.163574 12.3283 0.163574C15.9956 0.163574 18.6081 1.59662 20.571 3.46444L18.2518 5.77401C16.8443 4.45923 14.9373 3.43662 12.3248 3.43662C7.48401 3.43662 3.69798 7.32184 3.69798 12.1427C3.69798 16.9636 7.48401 20.8488 12.3248 20.8488C15.4647 20.8488 17.2529 19.5931 18.3985 18.4523C19.3276 17.5271 19.9388 16.2053 20.1798 14.4001L12.3248 14.4036Z" fill="#4285F4"/>
</svg>
