<svg width="122" height="26" viewBox="0 0 122 26" fill="none" xmlns="http://www.w3.org/2000/svg">
<g clip-path="url(#clip0_102_133)">
<path d="M43.0641 14.9753L42.337 17.0311H42.2764C42.1552 16.5675 41.933 15.8621 41.5694 15.0156L37.6711 5.24042H33.8535V20.8203H36.3783V11.2063C36.3783 10.6017 36.3783 9.91639 36.3581 9.06987C36.338 8.64662 36.2976 8.32414 36.2774 8.08228H36.3379C36.4591 8.68693 36.6005 9.13034 36.7015 9.41251L41.3876 20.78H43.1651L47.8108 9.31173C47.9118 9.04972 48.0128 8.52569 48.1138 8.08228H48.1744C48.1138 9.23111 48.0734 10.259 48.0532 10.8838V20.7598H50.7396V5.20011H47.0634L43.0641 14.9753ZM53.2846 9.5939H55.9105V20.7598H53.2846V9.5939ZM54.6177 4.87763C54.1734 4.87763 53.8098 5.03887 53.5068 5.32104C53.2038 5.60321 53.0423 5.966 53.0423 6.40941C53.0423 6.83266 53.2038 7.19546 53.5068 7.47763C53.8098 7.7598 54.1734 7.90088 54.6177 7.90088C55.0621 7.90088 55.4459 7.73964 55.7287 7.47763C56.0317 7.19546 56.1932 6.83266 56.1932 6.40941C56.1932 5.98615 56.0317 5.62336 55.7287 5.32104C55.4661 5.03887 55.0823 4.87763 54.6177 4.87763ZM65.2221 9.49313C64.7373 9.39235 64.2323 9.33189 63.7476 9.33189C62.5558 9.33189 61.4651 9.59391 60.5562 10.1179C59.6472 10.642 58.9201 11.3675 58.4555 12.2745C57.9707 13.2017 57.7283 14.2699 57.7283 15.4993C57.7283 16.5675 57.9707 17.5148 58.4353 18.3815C58.8999 19.228 59.5462 19.9133 60.4148 20.3769C61.2429 20.8404 62.2125 21.0823 63.3032 21.0823C64.5555 21.0823 65.626 20.8203 66.4744 20.3365L66.4946 20.3164V17.8978L66.3936 17.9784C66.0098 18.2606 65.5654 18.5024 65.1211 18.6435C64.6565 18.8048 64.2323 18.8854 63.8687 18.8854C62.8184 18.8854 61.9903 18.5831 61.4045 17.9179C60.7985 17.273 60.4956 16.3862 60.4956 15.2776C60.4956 14.1288 60.7985 13.2218 61.4247 12.5567C62.0509 11.8916 62.879 11.5489 63.8889 11.5489C64.7373 11.5489 65.6058 11.8311 66.3936 12.3955L66.4946 12.4761V9.91639L66.4744 9.89623C66.131 9.75515 65.7472 9.5939 65.2221 9.49313ZM73.8873 9.41251C73.2409 9.41251 72.635 9.61406 72.1098 10.0373C71.6654 10.4001 71.3624 10.9241 71.0999 11.5489H71.0797V9.5939H68.4538V20.7598H71.0797V15.0559C71.0797 14.0885 71.2817 13.2823 71.726 12.6978C72.1704 12.0931 72.736 11.7908 73.4227 11.7908C73.6651 11.7908 73.9075 11.8513 74.2105 11.8916C74.4932 11.9722 74.6952 12.0528 74.8366 12.1536L74.9376 12.2342V9.61406L74.877 9.5939C74.6952 9.47297 74.3317 9.41251 73.8873 9.41251ZM81.0376 9.35205C79.1995 9.35205 77.725 9.89623 76.6949 10.9644C75.6446 12.0327 75.1396 13.504 75.1396 15.3582C75.1396 17.0916 75.6648 18.5024 76.6747 19.5303C77.6846 20.5381 79.0581 21.0621 80.775 21.0621C82.5727 21.0621 84.0068 20.5179 85.037 19.4296C86.0873 18.3412 86.5923 16.89 86.5923 15.0962C86.5923 13.3226 86.1075 11.9117 85.1177 10.8838C84.1684 9.85592 82.7747 9.35205 81.0376 9.35205ZM83.1383 17.9381C82.6535 18.5629 81.886 18.8652 80.9366 18.8652C79.9873 18.8652 79.2197 18.5629 78.6744 17.8978C78.129 17.273 77.8664 16.366 77.8664 15.2172C77.8664 14.028 78.1492 13.121 78.6744 12.4761C79.2197 11.8311 79.9671 11.5086 80.9164 11.5086C81.8456 11.5086 82.5727 11.811 83.0979 12.4358C83.623 13.0606 83.9058 13.9675 83.9058 15.1567C83.8654 16.366 83.6432 17.3133 83.1383 17.9381ZM92.4499 14.2296C91.6217 13.8869 91.0965 13.6249 90.8542 13.4032C90.6522 13.2017 90.5512 12.9195 90.5512 12.5567C90.5512 12.2544 90.6724 11.952 90.9754 11.7505C91.2783 11.5489 91.6217 11.4482 92.1267 11.4482C92.5711 11.4482 93.0356 11.5288 93.48 11.6497C93.9244 11.7706 94.3283 11.952 94.6515 12.1939L94.7525 12.2745V9.81561L94.6919 9.79546C94.3889 9.67453 93.985 9.5536 93.5002 9.45282C93.0154 9.3722 92.5711 9.33189 92.2075 9.33189C90.9552 9.33189 89.925 9.63421 89.1171 10.2993C88.3091 10.9241 87.9254 11.7706 87.9254 12.7582C87.9254 13.2823 88.0062 13.7458 88.1879 14.1288C88.3697 14.5117 88.6323 14.8745 88.9959 15.1769C89.3595 15.459 89.8846 15.7815 90.6118 16.0838C91.2177 16.3458 91.6823 16.5474 91.9651 16.7086C92.2479 16.8699 92.4297 17.0513 92.5711 17.1924C92.672 17.3536 92.7326 17.5551 92.7326 17.8172C92.7326 18.5629 92.1671 18.9257 91.0158 18.9257C90.5714 18.9257 90.1068 18.8451 89.5615 18.6637C89.0161 18.4823 88.5111 18.2203 88.087 17.9179L87.986 17.8373V20.397L88.0466 20.4172C88.4303 20.5986 88.8949 20.7195 89.4605 20.8606C90.026 20.9613 90.531 21.042 90.9754 21.042C92.3287 21.042 93.4396 20.7396 94.2273 20.0745C95.0353 19.4296 95.4595 18.6032 95.4595 17.535C95.4595 16.7893 95.2575 16.1241 94.8131 15.6203C94.2273 15.1365 93.5002 14.6327 92.4499 14.2296ZM102.388 9.35205C100.55 9.35205 99.075 9.89623 98.0449 10.9644C97.0148 12.0327 96.4896 13.504 96.4896 15.3582C96.4896 17.0916 97.0148 18.5024 98.0247 19.5303C99.0346 20.5381 100.408 21.0621 102.125 21.0621C103.923 21.0621 105.357 20.5179 106.387 19.4296C107.437 18.3412 107.942 16.89 107.942 15.0962C107.942 13.3226 107.457 11.9117 106.468 10.8838C105.518 9.85592 104.125 9.35205 102.388 9.35205ZM104.468 17.9381C103.983 18.5629 103.216 18.8652 102.266 18.8652C101.297 18.8652 100.55 18.5629 100.004 17.8978C99.4588 17.273 99.1962 16.366 99.1962 15.2172C99.1962 14.028 99.479 13.121 100.004 12.4761C100.55 11.8311 101.297 11.5086 102.246 11.5086C103.155 11.5086 103.903 11.811 104.428 12.4358C104.953 13.0606 105.236 13.9675 105.236 15.1567C105.236 16.366 104.973 17.3133 104.468 17.9381ZM121.98 11.7505V9.5939H119.334V6.28848L119.254 6.30863L116.749 7.05437L116.688 7.07453V9.5939H112.729V8.18305C112.729 7.53809 112.891 7.03422 113.174 6.71173C113.456 6.38925 113.881 6.22801 114.406 6.22801C114.769 6.22801 115.153 6.30863 115.577 6.49003L115.678 6.55049V4.27298L115.618 4.25282C115.254 4.13189 114.769 4.05127 114.143 4.05127C113.355 4.05127 112.669 4.23266 112.043 4.53499C111.416 4.87763 110.952 5.34119 110.608 5.966C110.265 6.57065 110.083 7.25592 110.083 8.04197V9.5939H108.245V11.7303H110.083V20.7598H112.729V11.7505H116.688V17.4947C116.688 19.8528 117.799 21.042 120.021 21.042C120.385 21.042 120.768 20.9815 121.132 20.921C121.516 20.8404 121.799 20.7396 121.96 20.659L121.98 20.6389V18.4823L121.879 18.5629C121.718 18.6637 121.576 18.7443 121.334 18.8048C121.132 18.8652 120.95 18.8854 120.809 18.8854C120.284 18.8854 119.92 18.7644 119.657 18.4621C119.415 18.18 119.294 17.7164 119.294 17.0311V11.7505H121.98Z" fill="#737373"/>
<path d="M0 0H12.3818V12.355H0V0Z" fill="#F25022"/>
<path d="M13.6738 0H26.0556V12.355H13.6738V0Z" fill="#7FBA00"/>
<path d="M0 13.645H12.3818V26.0001H0V13.645Z" fill="#00A4EF"/>
<path d="M13.6738 13.645H26.0556V26.0001H13.6738V13.645Z" fill="#FFB900"/>
</g>
<defs>
<clipPath id="clip0_102_133">
<rect width="122" height="26" fill="white"/>
</clipPath>
</defs>
</svg>
