<svg width="98" height="34" viewBox="0 0 98 34" fill="none" xmlns="http://www.w3.org/2000/svg">
<path fill-rule="evenodd" clip-rule="evenodd" d="M86.3754 15.8408L80.1382 26.6751L74.8167 26.6963L86.3754 6.30378L97.8909 26.6963H92.4851L86.3754 15.8397V15.8408ZM69.5805 21.9799H75.5406L72.7734 26.6963H65.0051L65.0262 20.9535V6.42916H69.6027L69.5816 21.9799H69.5805ZM53.2346 6.43022C58.9175 6.45147 63.5151 10.9777 63.494 16.5728C63.4729 22.1478 58.8753 26.6751 53.1913 26.6751C47.5295 26.6538 42.9319 22.1276 42.9319 16.5314C42.953 10.9565 47.5505 6.43022 53.2346 6.43022ZM53.2135 21.9597C56.2567 21.9597 58.7036 19.5489 58.7036 16.5728C58.7257 13.5978 56.2567 11.1658 53.2346 11.1658C50.2113 11.1445 47.7423 13.5766 47.7423 16.5527C47.7213 19.5277 50.1902 21.9597 53.2124 21.9597H53.2135ZM34.4607 14.9632C34.3975 14.1238 34.1836 13.0135 33.8643 11.9457C33.2073 9.74004 32.0651 7.71235 30.5228 6.01372C29.7135 5.13397 28.7988 4.31585 27.4353 3.35216C26.3958 2.83493 25.3738 2.28283 24.3709 1.69678C23.7113 1.3196 22.923 0.857409 21.8809 0.522722C20.6452 0.228624 19.382 0.0672867 18.1126 0.0414094C16.8797 -0.00109055 15.6436 0.105159 14.4518 0.334659C13.1958 0.543972 12.1525 0.878659 10.7689 1.21441C7.63926 2.57653 5.2135 4.63035 3.12705 7.35566C-4.15235 17.6035 2.42524 31.96 14.5793 33.6568C16.5804 33.9298 18.5815 33.8247 20.4752 33.3848L21.8166 33.0288C21.8587 33.0076 21.923 32.9863 21.9652 32.9863L23.4984 32.3998C23.5827 32.3573 23.647 32.3361 23.7323 32.2947L24.3709 32.0014C25.5962 31.3917 26.7463 30.6393 27.7978 29.7595C26.8406 30.6364 25.7997 31.4155 24.6902 32.0853L24.7534 32.1278C24.9673 32.0641 25.1581 32.0014 25.3709 31.96C25.3709 31.96 25.3709 32.2947 25.3288 32.232C24.9884 32.4838 25.5206 32.2532 26.2013 31.8962C26.8831 31.5403 27.5427 31.0993 28.1381 30.5968C29.0117 29.8637 29.7778 29.0668 30.8632 27.7684C31.9696 25.8187 33.3542 24.1208 33.9928 21.8365C34.2057 21.2287 34.3964 20.5168 34.525 19.7827C34.6514 19.0495 34.7378 18.2952 34.7378 17.5195C34.7168 16.7439 34.6314 15.947 34.4607 14.9632ZM18.709 32.1905C22.4341 31.603 25.5627 29.529 28.117 26.6995C28.8199 25.6721 29.3731 24.7286 30.0539 23.7022C30.9053 21.6059 30.8421 19.7412 31.1182 18.4216C31.4596 16.031 30.6503 14.1036 29.9696 12.0498C28.9263 9.66022 27.5427 7.87947 25.1159 6.4961C18.9851 2.68172 10.6414 3.74953 6.66137 9.45091C6.64029 9.45091 6.53281 9.59754 6.31995 9.89079C6.59709 8.71779 7.29995 8.0261 8.00176 7.3546C10.0882 5.63653 12.515 4.27335 15.2822 3.60397C18.4119 3.26822 21.5184 3.60397 24.3066 4.9661C28.4795 7.3546 31.2467 11.1073 31.9485 15.5486V19.6573C31.076 26.385 25.3288 31.4988 18.709 32.1905ZM34.0139 16.8905C33.8643 7.04116 24.137 0.397347 14.6647 1.73928C11.8975 2.42991 8.87427 3.81328 6.72459 5.74172C5.68137 6.43235 5.19242 7.7116 4.1492 8.73797C-0.0237065 14.8792 0.701283 22.7385 5.89423 27.5177C6.56035 28.1817 7.27161 28.798 8.02283 29.3622C3.68133 26.741 1.72238 22.7789 1.04165 17.9605C1.04165 16.2413 1.38201 14.5435 1.74346 12.8254C4.17133 5.30078 11.8122 -0.168966 20.1358 1.21441C21.5194 1.55016 22.903 1.9061 24.3087 2.24185C26.0538 2.93247 27.7777 3.95991 29.1613 5.3231C30.5449 6.68416 31.5881 8.40329 32.6314 10.1001C33.3332 11.4633 33.6746 13.1813 34.015 14.5435C34.0782 15.3191 34.0782 16.116 34.015 16.8916L34.0139 16.8905Z" fill="black"/>
<path fill-rule="evenodd" clip-rule="evenodd" d="M25.3719 17.0382C25.3719 21.2722 21.8387 24.7094 17.475 24.7094C13.1124 24.7094 9.57812 21.2722 9.57812 17.0382C9.57812 12.8052 13.1114 9.36798 17.475 9.36798C21.8387 9.36798 25.3719 12.8052 25.3719 17.0392V17.0382Z" fill="white"/>
<path fill-rule="evenodd" clip-rule="evenodd" d="M25.416 15.7386C25.3095 15.1521 25.1388 14.691 24.9692 14.0418C24.2874 12.6159 23.2874 11.5056 21.967 10.5621C17.0291 7.27262 10.2386 10.4367 9.51572 16.0542C9.23964 18.2759 10.0268 20.4136 11.4315 22.0488C11.0057 21.6079 10.5379 21.1478 10.2186 20.6229L10.1764 20.6654C10.2186 20.7908 10.3893 20.8747 10.4314 21.0001C10.4314 21.0001 10.2607 21.0001 10.3039 20.9789C10.1764 20.8333 10.2829 21.0639 10.4736 21.3773C10.6443 21.6918 10.8572 21.9861 11.1122 22.2581C11.4747 22.6566 11.8572 23.0125 12.4958 23.4949C13.4336 23.9762 14.2629 24.6052 15.3483 24.8984C15.6465 24.9834 15.9869 25.0663 16.3283 25.129C16.6897 25.1927 17.0301 25.214 17.4137 25.214C17.7751 25.214 18.1587 25.1715 18.6266 25.0865C19.109 25.0292 19.5859 24.9315 20.0523 24.7943C21.094 24.4781 22.0537 23.9339 22.8627 23.2006C23.2673 22.8244 23.8427 22.3421 24.2884 21.7131C24.6509 21.0012 24.6931 20.6442 24.8638 20.3297C25.0334 20.0152 25.2463 19.6592 25.3959 19.1769C25.5179 18.6046 25.5891 18.0225 25.6088 17.4376C25.5877 16.8511 25.5456 16.2847 25.417 15.7397L25.416 15.7386ZM20.3495 11.8414C21.0734 12.26 21.1798 12.3227 20.7963 12.0507C21.3505 12.1761 21.6909 12.4906 22.0313 12.8051C22.8616 13.7486 23.5424 14.8589 23.8827 16.1371C24.0745 17.5831 23.9249 19.0292 23.3084 20.3084C22.202 22.2571 20.4348 23.5565 18.3273 23.9124C18.0934 23.9124 17.8383 23.9124 17.6034 23.9337C18.1998 23.8285 18.5834 23.4513 19.6687 23.0529C20.8384 22.6342 22.1588 20.6856 22.7984 19.553C24.6709 16.4717 22.457 13.6221 20.3495 11.8414ZM16.3483 23.9539C13.1133 23.6192 10.6222 20.9576 10.2818 17.8764C10.579 19.5955 11.6011 20.9151 12.9847 22.0892C13.4747 22.4037 14.1976 22.8436 14.6876 23.1581C15.518 23.4726 16.0069 23.8083 16.8162 23.9549H16.3483V23.9539ZM25.0535 18.3587C24.9059 19.009 24.7563 19.6369 24.6067 20.2872C24.2874 21.0841 23.8195 21.9011 23.1809 22.5503C22.5423 23.2006 21.7331 23.7031 20.9248 24.1855C20.2862 24.5202 19.4769 24.6881 18.8173 24.8549C18.4337 24.8974 17.9869 24.7295 17.6034 24.7093C22.3295 24.5829 25.5645 20.1618 24.8627 15.7811C24.5213 14.5029 23.8406 13.3916 23.0102 12.2812C22.6699 11.7989 22.0091 11.5056 21.5202 11.0232C18.5612 9.15856 14.6454 9.53575 12.4104 11.988C12.097 12.3102 11.8052 12.6531 11.5368 13.0144C12.7297 11.2538 14.6454 10.0181 16.9437 9.66112C17.753 9.63987 18.5834 9.78756 19.3916 9.93419C22.9681 11.0232 25.6288 14.5029 25.0535 18.3598V18.3587Z" fill="#D7DF23"/>
</svg>
