<svg width="84" height="32" viewBox="0 0 84 32" fill="none" xmlns="http://www.w3.org/2000/svg">
<path d="M69.0639 30.64C77.0423 30.64 83.534 24.0432 83.534 15.936C83.534 7.824 77.0423 1.23199 69.0639 1.23199C61.0839 1.23199 54.5937 7.824 54.5937 15.936C54.5937 24.0432 61.0839 30.64 69.0639 30.64ZM69.0639 10.6928C71.9072 10.6928 74.2227 13.0448 74.2227 15.9344C74.2227 18.824 71.9056 21.1728 69.0623 21.1728C66.2174 21.1728 63.905 18.824 63.905 15.9328C63.905 13.04 66.2189 10.6896 69.0623 10.6896L69.0639 10.6928ZM14.4702 30.64C22.4486 30.64 28.9404 24.0432 28.9404 15.936C28.9404 7.824 22.4486 1.23199 14.4702 1.23199C6.49336 1.23199 0 7.824 0 15.936C0 24.0432 6.49336 30.64 14.4702 30.64ZM14.4702 10.6928C17.3151 10.6928 19.6291 13.0448 19.6291 15.9344C19.6291 18.824 17.3151 21.1728 14.4702 21.1728C11.6269 21.1728 9.31449 18.824 9.31449 15.9328C9.31449 13.04 11.6285 10.6896 14.4702 10.6896V10.6928ZM41.7591 10.3616L37.3166 1.42399H26.9149L36.6303 20.976V30.1808H46.8894V20.976L56.6049 1.42399H46.1984L41.7607 10.3616H41.7591Z" fill="#EE2E24"/>
</svg>
