<svg width="120" height="28" viewBox="0 0 120 28" fill="none" xmlns="http://www.w3.org/2000/svg">
<g clip-path="url(#clip0_102_104)">
<path d="M42.7048 9.95924V11.5461H42.7535C43.3267 10.6965 44.2782 9.69594 46.3874 9.69594C48.0284 9.69594 49.2871 10.528 49.8266 11.7848H49.8753C50.3361 11.1494 50.8643 10.6684 51.4563 10.3279C52.1568 9.92413 52.9361 9.69243 53.9176 9.69243C56.1392 9.69243 58.1061 11.1318 58.1061 14.7618V21.6463H54.7193V15.2428C54.7193 13.4032 54.0525 12.3395 52.6663 12.3395C51.6511 12.3395 50.913 12.9784 50.6321 13.7648C50.5347 14.0351 50.4897 14.4037 50.4897 14.7127V21.6498H47.103V14.983C47.103 13.4208 46.4624 12.336 45.0949 12.336C44.001 12.336 43.3154 13.1434 43.0344 13.835C42.9146 14.1299 42.8771 14.4704 42.8771 14.7899V21.6463H39.4866V9.95924H42.7048ZM75.5866 9.95924V12.1639H75.6802C76.3021 10.4788 77.7782 9.69594 79.0744 9.69594C79.4004 9.69594 79.5802 9.72052 79.8424 9.76966V12.831C79.5315 12.7888 79.243 12.7467 78.8384 12.7467C77.3699 12.7467 76.3471 13.5471 76.0886 14.8004C76.0324 15.0602 76.0137 15.3411 76.0137 15.6641V21.6498H72.537V9.95924H75.5866ZM84.5629 6.08698V9.76615H87.5V12.7432H84.5629V17.135C84.5629 18.5569 84.9487 19.245 86.0951 19.245C86.6346 19.245 87.0317 19.1818 87.3764 19.101L87.4213 21.569C86.9605 21.7305 85.979 21.906 84.9825 21.906C83.8098 21.906 82.832 21.5234 82.2364 20.9301C81.5545 20.2525 81.2398 19.1431 81.2398 17.5633V6.08698H84.5629ZM37.1264 21.6463H33.7547V6.08698H37.1264V21.6463ZM28.1352 17.4721C28.1352 17.6862 28.1164 17.9109 28.0528 18.104C27.7905 18.915 26.8951 19.5995 25.7787 19.5995C24.8459 19.5995 24.1041 19.1045 24.1041 18.0548C24.1041 16.4505 25.9923 16.0046 28.1389 16.0151V17.4721H28.1352ZM31.5032 14.6741C31.5032 12.0235 30.2968 9.69594 26.217 9.69594C24.1228 9.69594 22.4594 10.2471 21.5528 10.7386L22.2159 12.8661C23.0439 12.3746 24.3663 11.9709 25.6176 11.9709C27.6894 11.9673 28.0265 13.0697 28.0265 13.7753V13.9438C23.5122 13.9368 20.6612 15.4008 20.6612 18.3848C20.6612 20.2069 22.111 21.9131 24.6361 21.9131C26.1908 21.9131 27.4871 21.3338 28.2663 20.4035H28.3412C28.3412 20.4035 28.8582 22.4221 31.698 21.6498C31.5481 20.8072 31.4994 19.912 31.4994 18.8342V14.6741H31.5032ZM3.72388 6.08698C4.07229 7.73348 5.06133 12.515 5.06133 12.515C5.47718 14.481 5.85931 16.5417 6.14778 18.1707H6.20023C6.4812 16.4399 6.92327 14.8005 7.39532 12.7713L9.06245 6.08698H12.7526L14.3111 12.9433C14.7195 14.8496 15.0454 16.3206 15.3039 18.0935H15.3526C15.6336 16.303 16.0007 14.7724 16.4016 12.8134L17.9001 6.08698H21.4404L17.0534 21.6463C14.2586 22.2185 13.1872 21.1653 12.8051 19.4942C12.4229 17.8196 11.6737 14.6354 11.6737 14.6354C11.2878 12.8906 10.9881 11.6619 10.7783 9.87147H10.7258C10.4261 11.6444 10.1114 12.8871 9.64688 14.6319L7.80742 21.6498C4.95269 22.1834 3.96365 21.3935 3.41668 19.2485C2.94464 17.4124 0 6.09049 0 6.09049H3.72388V6.08698ZM66.9175 17.4721C66.9175 17.6862 66.8988 17.9109 66.8351 18.104C66.5728 18.915 65.6775 19.5995 64.561 19.5995C63.6282 19.5995 62.8864 19.1045 62.8864 18.0548C62.8864 16.4505 64.7746 16.0046 66.9212 16.0151V17.4721H66.9175ZM70.2855 14.6741C70.2855 12.0235 69.0791 9.69594 64.9994 9.69594C62.9051 9.69594 61.2418 10.2471 60.3351 10.7386L60.9982 12.8661C61.8262 12.3746 63.1487 11.9709 64.3999 11.9709C66.4679 11.9673 66.8089 13.0697 66.8089 13.7753V13.9438C62.2982 13.9368 59.4473 15.4008 59.4473 18.3848C59.4473 20.2069 60.9008 21.9131 63.4221 21.9131C64.9731 21.9131 66.2731 21.3338 67.0486 20.4035H67.1273C67.1273 20.4035 67.6443 22.4221 70.484 21.6498C70.3342 20.8072 70.2855 19.912 70.2855 18.8342V14.6741Z" fill="#041E42"/>
<path d="M101.168 16.2875C101.5 16.8557 101.478 17.4899 101.123 17.7795L94.9912 21.999C94.3527 22.3619 93.3967 21.922 92.8552 21.0018C92.31 20.078 92.4071 19.0479 93.0457 18.685L99.8347 15.5837C100.26 15.4224 100.835 15.7193 101.168 16.2875ZM109.238 16.2875C109.574 15.7193 110.145 15.426 110.571 15.58L117.364 18.6813C118.002 19.0443 118.096 20.0744 117.554 20.9982C117.009 21.9183 116.049 22.3545 115.414 21.9953L109.283 17.7759C108.931 17.4899 108.905 16.8521 109.238 16.2875ZM105.201 18.575C105.869 18.575 106.418 18.9123 106.493 19.3559L107.154 26.6803C107.154 27.4061 106.291 28 105.205 28C104.122 28 103.255 27.4061 103.255 26.6803L103.913 19.3559C103.987 18.9123 104.536 18.575 105.201 18.575ZM109.283 10.2241L115.414 6.00105C116.049 5.63812 117.009 6.07436 117.554 6.99817C118.096 7.92197 118.002 8.95208 117.364 9.315L110.571 12.42C110.145 12.574 109.57 12.2807 109.238 11.7125C108.905 11.1443 108.931 10.5101 109.283 10.2241ZM99.8347 12.42L93.0457 9.315C92.4108 8.95208 92.3137 7.92197 92.8552 6.99817C93.3967 6.07436 94.3564 5.63812 94.9912 6.00105L101.123 10.2241C101.478 10.5064 101.5 11.1443 101.168 11.7125C100.835 12.2807 100.26 12.574 99.8347 12.42ZM103.913 8.64415L103.255 1.31972C103.255 0.593873 104.118 0 105.205 0C106.291 0 107.154 0.593873 107.154 1.31972L106.493 8.64415C106.418 9.08405 105.869 9.42498 105.201 9.42498C104.536 9.42498 103.987 9.08405 103.913 8.64415ZM119.212 21.9696V21.7863H119.38C119.436 21.7863 119.473 21.823 119.473 21.878C119.473 21.9293 119.436 21.9696 119.38 21.9696H119.212ZM119.074 22.3032C119.074 22.3216 119.089 22.3399 119.111 22.3399H119.182C119.201 22.3399 119.22 22.3216 119.22 22.3032V22.0943H119.335L119.429 22.3142C119.436 22.3289 119.447 22.3399 119.462 22.3399H119.548C119.574 22.3399 119.593 22.3142 119.582 22.2886C119.548 22.2226 119.515 22.1529 119.481 22.0833C119.537 22.0649 119.623 22.01 119.623 21.878C119.623 21.7387 119.507 21.658 119.391 21.658H119.111C119.093 21.658 119.074 21.6764 119.074 21.6947V22.3032ZM118.771 21.999C118.771 21.702 119.018 21.4601 119.32 21.4601C119.623 21.4601 119.869 21.6983 119.869 21.999C119.869 22.2959 119.627 22.5378 119.32 22.5378C119.014 22.5378 118.771 22.2959 118.771 21.999ZM118.641 21.999C118.641 22.3655 118.943 22.6661 119.32 22.6661C119.694 22.6661 120 22.3655 120 21.999C120 21.6324 119.694 21.3318 119.32 21.3318C118.943 21.3318 118.641 21.6324 118.641 21.999Z" fill="#FFC124"/>
</g>
<defs>
<clipPath id="clip0_102_104">
<rect width="120" height="28" fill="white"/>
</clipPath>
</defs>
</svg>
